<?xml version="1.0" encoding="UTF-8" standalone="no"?>
<!-- Created with Inkscape (http://www.inkscape.org/) -->

<svg
   xmlns:dc="http://purl.org/dc/elements/1.1/"
   xmlns:cc="http://creativecommons.org/ns#"
   xmlns:rdf="http://www.w3.org/1999/02/22-rdf-syntax-ns#"
   xmlns:svg="http://www.w3.org/2000/svg"
   xmlns="http://www.w3.org/2000/svg"
   xmlns:sodipodi="http://sodipodi.sourceforge.net/DTD/sodipodi-0.dtd"
   xmlns:inkscape="http://www.inkscape.org/namespaces/inkscape"
   width="352.06702"
   height="455.25281"
   id="svg2"
   version="1.1"
   inkscape:version="0.48.3.1 r9886"
   sodipodi:docname="Master.svg">
  <defs
     id="defs4" />
  <sodipodi:namedview
     id="base"
     pagecolor="#ffffff"
     bordercolor="#666666"
     borderopacity="1.0"
     inkscape:pageopacity="0.0"
     inkscape:pageshadow="2"
     inkscape:zoom="1.979899"
     inkscape:cx="147.30359"
     inkscape:cy="201.83279"
     inkscape:document-units="px"
     inkscape:current-layer="layer1"
     showgrid="true"
     showguides="false"
     inkscape:window-width="1678"
     inkscape:window-height="1048"
     inkscape:window-x="1920"
     inkscape:window-y="0"
     inkscape:window-maximized="0"
     fit-margin-top="0"
     fit-margin-left="0"
     fit-margin-right="0"
     fit-margin-bottom="0">
    <inkscape:grid
       type="xygrid"
       id="grid4099"
       empspacing="5"
       visible="true"
       enabled="true"
       snapvisiblegridlinesonly="true"
       originx="-8.3014425px"
       originy="-239.65135px" />
  </sodipodi:namedview>
  <metadata
     id="metadata7">
    <rdf:RDF>
      <cc:Work
         rdf:about="">
        <dc:format>image/svg+xml</dc:format>
        <dc:type
           rdf:resource="http://purl.org/dc/dcmitype/StillImage" />
        <dc:title />
      </cc:Work>
    </rdf:RDF>
  </metadata>
  <g
     inkscape:label="Layer 1"
     inkscape:groupmode="layer"
     id="layer1"
     transform="translate(-8.3014425,-5.0958296)">
    <path
       style="fill:none;stroke:#000000;stroke-width:0.71588016px;stroke-linecap:butt;stroke-linejoin:miter;stroke-opacity:1"
       d="m 248.6993,273.80813 0,52.34479 c 0,1.5 1.5,3 3,3 l 57.50369,0"
       id="path3201"
       inkscape:connector-type="orthogonal"
       inkscape:connector-curvature="3" />
    <path
       style="fill:none;stroke:#000000;stroke-width:0.71588016px;stroke-linecap:butt;stroke-linejoin:miter;stroke-opacity:1"
       d="m 248.6993,273.80813 0,105.36539 c 0,1.5 1.5,3 3,3 l 57.50369,0"
       id="path3203"
       inkscape:connector-type="orthogonal"
       inkscape:connector-curvature="3" />
    <path
       style="fill:none;stroke:#000000;stroke-width:0.71588016px;stroke-linecap:butt;stroke-linejoin:miter;stroke-opacity:1"
       d="m 248.6993,273.80813 0,158.38599 c 0,1.5 1.5,3 3,3 l 57.51488,0"
       id="path3207"
       inkscape:connector-type="orthogonal"
       inkscape:connector-curvature="3" />
    <path
       style="fill:none;stroke:#000000;stroke-width:0.71588016px;stroke-linecap:butt;stroke-linejoin:miter;stroke-opacity:1"
       d="m 248.6993,273.80813 0,52.34479 c 0,1.5 1.5,3 3,3 l 57.50369,0"
       id="path3982"
       inkscape:connector-type="orthogonal"
       inkscape:connector-curvature="3" />
    <path
       style="fill:none;stroke:#000000;stroke-width:0.71588016px;stroke-linecap:butt;stroke-linejoin:miter;stroke-opacity:1"
       d="m 248.6993,273.80813 0,105.36539 c 0,1.5 1.5,3 3,3 l 57.50369,0"
       id="path3984"
       inkscape:connector-type="orthogonal"
       inkscape:connector-curvature="3" />
    <path
       style="fill:none;stroke:#000000;stroke-width:0.71588016px;stroke-linecap:butt;stroke-linejoin:miter;stroke-opacity:1"
       d="m 248.6993,273.80813 0,158.38599 c 0,1.5 1.5,3 3,3 l 57.51488,0"
       id="path3986"
       inkscape:connector-type="orthogonal"
       inkscape:connector-curvature="3" />
    <flowRoot
       xml:space="preserve"
       id="flowRoot4033"
       style="font-size:40px;font-style:normal;font-weight:normal;line-height:125%;letter-spacing:0px;word-spacing:0px;fill:#000000;fill-opacity:1;stroke:none;font-family:Sans"><flowRegion
         id="flowRegion4035"><rect
           id="rect4037"
           width="194.95944"
           height="108.08632"
           x="48.487324"
           y="400.81378" /></flowRegion><flowPara
         id="flowPara4039" /></flowRoot>    <flowRoot
       xml:space="preserve"
       id="flowRoot4041"
       style="font-size:40px;font-style:normal;font-weight:normal;line-height:125%;letter-spacing:0px;word-spacing:0px;fill:#000000;fill-opacity:1;stroke:none;font-family:Sans"><flowRegion
         id="flowRegion4043"><rect
           id="rect4045"
           width="174.75639"
           height="104.04572"
           x="42.426407"
           y="384.65134" /></flowRegion><flowPara
         id="flowPara4047" /></flowRoot>    <path
       style="fill:none;stroke:#000000;stroke-width:0.71588016px;stroke-linecap:butt;stroke-linejoin:miter;stroke-opacity:1"
       d="m 128.92745,151.50574 0,58.17301 c 0,1.5 -1.5,3 -3,3 l -63.622667,0"
       id="path4063"
       inkscape:connector-type="orthogonal"
       inkscape:connector-curvature="3" />
    <path
       style="fill:none;stroke:#000000;stroke-width:0.71588016px;stroke-linecap:butt;stroke-linejoin:miter;stroke-opacity:1"
       d="m 128.92745,151.50574 0,120.0116 c 0,1.5 -1.5,3 -3,3 l -63.806633,0"
       id="path4065"
       inkscape:connector-type="orthogonal"
       inkscape:connector-curvature="3" />
    <path
       style="fill:none;stroke:#000000;stroke-width:0.71588016px;stroke-linecap:butt;stroke-linejoin:miter;stroke-opacity:1"
       d="m 188.42371,85.410001 0,240.742919 c 0,1.5 -1.5,3 -3,3 l -57.43524,0"
       id="path4079"
       inkscape:connector-type="orthogonal"
       inkscape:connector-curvature="3" />
    <path
       style="fill:none;stroke:#000000;stroke-width:0.71588016px;stroke-linecap:butt;stroke-linejoin:miter;stroke-opacity:1"
       d="m 188.42371,27.406183 0,58.003818"
       id="path4085"
       inkscape:connector-type="polyline"
       inkscape:connector-curvature="3" />
    <path
       style="fill:none;stroke:#000000;stroke-width:0.71588016px;stroke-linecap:butt;stroke-linejoin:miter;stroke-opacity:1"
       d="m 188.42371,85.410001 0,124.239679 c 0,1.5 1.5,3 3,3 l 57.63169,0"
       id="path4089"
       inkscape:connector-type="orthogonal"
       inkscape:connector-curvature="3" />
    <path
       style="fill:none;stroke:#000000;stroke-width:0.71588016px;stroke-linecap:butt;stroke-linejoin:miter;stroke-opacity:1"
       d="m 188.42371,85.410001 0,185.398129 c 0,1.5 1.5,3 3,3 l 57.27559,0"
       id="path4091"
       inkscape:connector-type="orthogonal"
       inkscape:connector-curvature="3" />
    <path
       style="fill:none;stroke:#000000;stroke-width:0.71588016px;stroke-linecap:butt;stroke-linejoin:miter;stroke-opacity:1"
       d="m 188.42371,85.410001 0,63.095739 c 0,1.5 -1.5,3 -3,3 l -56.49626,0"
       id="path4095"
       inkscape:connector-type="orthogonal"
       inkscape:connector-curvature="3" />
    <rect
       style="fill:#e8eae4;fill-opacity:1;fill-rule:evenodd;stroke:#000000;stroke-width:0.73691392;stroke-linecap:butt;stroke-linejoin:round;stroke-miterlimit:4;stroke-opacity:1;stroke-dasharray:none"
       id="rect2985-7-8"
       width="100.87875"
       height="44.639931"
       x="259.12125"
       y="307.19119" />
    <text
       xml:space="preserve"
       style="font-size:15.13170338px;font-style:normal;font-weight:normal;text-align:center;line-height:125%;letter-spacing:0px;word-spacing:0px;text-anchor:middle;fill:#3c323a;fill-opacity:1;stroke:none;font-family:Sans"
       x="293.05963"
       y="352.5188"
       id="text3806-3"
       sodipodi:linespacing="125%"
       transform="scale(1.0559537,0.94701118)"><tspan
         sodipodi:role="line"
         id="tspan3808-0"
         x="293.05963"
         y="352.5188">CSVLogger</tspan></text>
    <rect
       style="fill:#e8eae4;fill-opacity:1;fill-rule:evenodd;stroke:#000000;stroke-width:0.73691392;stroke-linecap:butt;stroke-linejoin:round;stroke-miterlimit:4;stroke-opacity:1;stroke-dasharray:none"
       id="rect2985-7-8-6"
       width="100.87875"
       height="44.639931"
       x="259.12125"
       y="360.21179" />
    <text
       xml:space="preserve"
       style="font-size:15.13170338px;font-style:normal;font-weight:normal;text-align:center;line-height:125%;letter-spacing:0px;word-spacing:0px;text-anchor:middle;fill:#3c323a;fill-opacity:1;stroke:none;font-family:Sans"
       x="293.05963"
       y="408.50607"
       id="text3806-3-0"
       sodipodi:linespacing="125%"
       transform="scale(1.0559537,0.94701118)"><tspan
         sodipodi:role="line"
         id="tspan3808-0-5"
         x="293.05963"
         y="408.50607">SQLLogger</tspan></text>
    <rect
       style="fill:#e8eae4;fill-opacity:1;fill-rule:evenodd;stroke:#000000;stroke-width:0.73683226;stroke-linecap:butt;stroke-linejoin:round;stroke-miterlimit:4;stroke-opacity:1;stroke-dasharray:none"
       id="rect2985-7-8-6-5"
       width="100.85639"
       height="44.639931"
       x="259.14362"
       y="413.23239" />
    <text
       xml:space="preserve"
       style="font-size:14.21713066px;font-style:normal;font-weight:normal;text-align:center;line-height:125%;letter-spacing:0px;word-spacing:0px;text-anchor:middle;fill:#3c323a;fill-opacity:1;stroke:none;font-family:Sans"
       x="311.67358"
       y="436.41907"
       id="text3806-3-0-9"
       sodipodi:linespacing="125%"
       transform="scale(0.99213112,1.0079313)"><tspan
         sodipodi:role="line"
         id="tspan3808-0-5-2"
         x="311.67358"
         y="436.41907">LogFileLogger</tspan></text>
    <path
       style="fill:none;stroke:#000000;stroke-width:0.71588016px;stroke-linecap:butt;stroke-linejoin:miter;stroke-opacity:1"
       d="m 188.42371,85.410001 0,63.081199 c 0,1.5 1.5,3 3,3 l 57.44643,0"
       id="path3189"
       inkscape:connector-type="orthogonal"
       inkscape:connector-curvature="3" />
    <rect
       style="fill:#ffffff;fill-rule:evenodd;stroke:#ffffff;stroke-width:0.46600953px;stroke-linecap:butt;stroke-linejoin:miter;stroke-opacity:1"
       id="rect3191"
       width="90.928055"
       height="7.1649456"
       x="209.07195"
       y="-119.99998"
       inkscape:connector-avoid="true"
       transform="scale(1,-1)" />
    <path
       style="fill:none;stroke:#000000;stroke-width:0.71588016px;stroke-linecap:butt;stroke-linejoin:miter;stroke-opacity:1"
       d="m 127.98847,329.15292 0,52.09051 c 0,1.5 -1.5,3 -3,3 l -53.694656,0"
       id="path3961"
       inkscape:connector-type="orthogonal"
       inkscape:connector-curvature="3" />
    <rect
       style="fill:#ffffff;stroke:#ffffff;stroke-width:0.70483416;stroke-opacity:1"
       id="rect3980"
       width="90.137268"
       height="7.1649456"
       x="259.86273"
       y="297.83505"
       inkscape:connector-avoid="true" />
    <path
       style="fill:none;stroke:#000000;stroke-width:0.71588016px;stroke-linecap:butt;stroke-linejoin:miter;stroke-opacity:1"
       d="m 309.20299,382.17352 0,0"
       id="path3205"
       inkscape:connector-type="orthogonal"
       inkscape:connector-curvature="3" />
    <path
       style="fill:#ff9900;fill-opacity:0;stroke:#255153;stroke-width:0.511343;stroke-opacity:0"
       d="m 143.97041,27.990264 0,-21.7507289 44.70414,0 44.70414,0 0,21.7507289 0,21.750728 -44.70414,0 -44.70414,0 0,-21.750728 z m 25.75889,4.55128 c 0.44447,-0.170855 0.80814,-0.740909 0.80814,-1.266787 0,-0.82121 -0.18977,-0.883867 -1.34475,-0.443994 -1.65689,0.631033 -3.08523,0.221757 -3.78281,-1.083923 -0.49505,-0.926575 -0.334,-0.988904 2.55506,-0.988904 3.32095,0 3.70536,-0.418983 2.49601,-2.7205 -0.78477,-1.493506 -1.4259,-1.86837 -3.21146,-1.877699 -2.29615,-0.012 -3.86472,1.771544 -3.86472,4.394373 0,1.741916 0.26888,2.38852 1.34617,3.237372 1.3261,1.044902 3.41562,1.35846 4.99836,0.750062 l 0,0 z m 8.45156,-0.190332 c 1.22506,-0.656759 2.10459,-3.260852 1.73186,-5.127668 -0.44702,-2.238974 -1.85441,-3.265425 -3.99923,-2.916771 -1.7666,0.287172 -1.79972,0.260181 -1.79972,-1.466504 0,-1.222421 -0.23379,-1.759061 -0.76636,-1.759061 -0.63524,0 -0.76635,0.973331 -0.76635,5.68929 0,5.43638 0.0454,5.677397 1.0213,5.421755 0.56171,-0.147143 1.15005,-0.05885 1.30741,0.196202 0.37689,0.610871 2.09872,0.591267 3.27109,-0.03724 l 0,0 z m 9.61365,-0.295715 c 0.79703,-0.55922 1.13549,-1.318443 1.13549,-2.54711 0,-1.896026 -1.08914,-2.941873 -3.74532,-3.596447 -1.66438,-0.41016 -2.35381,-1.641948 -1.31045,-2.341325 0.3922,-0.262889 1.59317,-0.349202 2.66883,-0.191807 1.67841,0.245593 1.93135,0.157411 1.78376,-0.621877 -0.12709,-0.670983 -0.74862,-0.949668 -2.38066,-1.067464 -2.86531,-0.206809 -4.67973,0.926624 -4.67973,2.923347 0,1.72688 0.63968,2.34375 3.35032,3.23088 1.39538,0.456673 2.06166,0.992335 2.16871,1.743569 0.18713,1.313082 -1.44017,1.895638 -3.30805,1.184251 -1.81401,-0.690871 -2.21098,-0.599698 -2.21098,0.507805 0,1.613577 4.56158,2.155941 6.52808,0.776178 l 0,0 z m 8.67133,0.474125 c 0.64917,-0.174271 1.14954,-0.70729 1.14954,-1.224564 0,-0.809821 -0.20661,-0.852454 -1.78277,-0.367882 -1.50356,0.462247 -1.94365,0.402245 -2.80998,-0.383114 -1.62297,-1.471292 -1.24434,-1.796126 2.09361,-1.796126 l 3.12081,0 -0.35064,-1.4074 c -0.53083,-2.130618 -1.7566,-3.198636 -3.6711,-3.198636 -2.45038,0 -3.75259,1.496687 -3.75259,4.313 0,3.399855 2.40748,5.029969 6.00312,4.064722 z m 23.33209,0.01192 c 0.44448,-0.170856 0.80815,-0.73463 0.80815,-1.252833 0,-0.819558 -0.19477,-0.87417 -1.4965,-0.419607 -1.70791,0.596403 -3.61254,-0.12142 -3.61254,-1.361503 0,-0.567499 0.68281,-0.749667 2.80997,-0.749667 2.6567,0 2.80997,-0.06979 2.80997,-1.279454 0,-3.192463 -4.5751,-4.562714 -6.60467,-1.978109 -1.79541,2.286397 -1.19084,5.893374 1.14585,6.836464 1.34578,0.543159 3.0412,0.626996 4.13977,0.204708 l 0,10e-7 z m -64.26258,-4.123442 0.92311,-3.922308 0.96587,3.922308 c 0.84943,3.449424 1.1054,3.922305 2.12317,3.922305 1.03,0 1.27897,-0.492563 2.26349,-4.478091 0.60841,-2.46295 1.2269,-4.881119 1.37442,-5.373709 0.19144,-0.63922 -0.0177,-0.895618 -0.73078,-0.895618 -0.82021,0 -1.17637,0.709852 -1.99007,3.966309 l -0.99107,3.966309 -0.94775,-3.966309 c -0.81524,-3.411778 -1.1002,-3.966309 -2.03817,-3.966309 -0.93798,0 -1.22294,0.554531 -2.03818,3.966309 l -0.94775,3.966309 -0.99107,-3.966309 c -0.79862,-3.196108 -1.17838,-3.966309 -1.95564,-3.966309 -1.16215,0 -1.15613,-0.135573 -0.16729,3.76449 1.84374,7.27182 1.71919,6.982928 3.01062,6.982928 1.09215,0 1.30663,-0.39364 2.13709,-3.922307 l 0,2e-6 z m 45.65636,1.461213 c 0,-2.963236 0.8674,-4.356552 2.56037,-4.11273 0.97855,0.140933 1.47137,0.821825 2.44286,3.375186 1.01092,2.656979 1.41817,3.198636 2.40491,3.198636 0.99616,0 1.40128,-0.55936 2.50983,-3.465383 1.54419,-4.048053 1.62778,-4.858146 0.47798,-4.632706 -0.49488,0.09703 -1.29816,1.385454 -1.94212,3.115068 l -1.09817,2.949597 -1.05172,-2.949597 -1.05172,-2.949597 -3.39247,-0.05962 -3.39246,-0.05962 0,4.02593 c 0,3.237416 0.15009,4.02593 0.76635,4.02593 0.57496,0 0.76636,-0.614643 0.76636,-2.461092 z m 23.50161,-0.251351 c 0,-2.836965 0.60101,-3.94072 2.1458,-3.94072 0.50579,0 0.91962,-0.332266 0.91962,-0.738369 0,-0.547496 -0.66036,-0.733244 -2.55452,-0.718546 l -2.55452,0.01982 0,4.045129 c 0,3.70394 0.0862,4.045128 1.02181,4.045128 0.89328,0 1.02181,-0.341188 1.02181,-2.712443 z"
       id="path4055"
       inkscape:connector-curvature="0" />
    <path
       style="fill:#ff9900;fill-opacity:0;stroke:#255153;stroke-width:0.511343;stroke-opacity:0"
       d="m 143.97041,27.990264 0,-21.7507289 44.70414,0 44.70414,0 0,21.7507289 0,21.750728 -44.70414,0 -44.70414,0 0,-21.750728 z m 25.75889,4.55128 c 0.44447,-0.170855 0.80814,-0.740909 0.80814,-1.266787 0,-0.82121 -0.18977,-0.883867 -1.34475,-0.443994 -1.65689,0.631033 -3.08523,0.221757 -3.78281,-1.083923 -0.49505,-0.926575 -0.334,-0.988904 2.55506,-0.988904 3.32095,0 3.70536,-0.418983 2.49601,-2.7205 -0.78477,-1.493506 -1.4259,-1.86837 -3.21146,-1.877699 -2.29615,-0.012 -3.86472,1.771544 -3.86472,4.394373 0,1.741916 0.26888,2.38852 1.34617,3.237372 1.3261,1.044902 3.41562,1.35846 4.99836,0.750062 l 0,0 z m 8.45156,-0.190332 c 1.22506,-0.656759 2.10459,-3.260852 1.73186,-5.127668 -0.44702,-2.238974 -1.85441,-3.265425 -3.99923,-2.916771 -1.7666,0.287172 -1.79972,0.260181 -1.79972,-1.466504 0,-1.222421 -0.23379,-1.759061 -0.76636,-1.759061 -0.63524,0 -0.76635,0.973331 -0.76635,5.68929 0,5.43638 0.0454,5.677397 1.0213,5.421755 0.56171,-0.147143 1.15005,-0.05885 1.30741,0.196202 0.37689,0.610871 2.09872,0.591267 3.27109,-0.03724 l 0,0 z m 9.61365,-0.295715 c 0.79703,-0.55922 1.13549,-1.318443 1.13549,-2.54711 0,-1.896026 -1.08914,-2.941873 -3.74532,-3.596447 -1.66438,-0.41016 -2.35381,-1.641948 -1.31045,-2.341325 0.3922,-0.262889 1.59317,-0.349202 2.66883,-0.191807 1.67841,0.245593 1.93135,0.157411 1.78376,-0.621877 -0.12709,-0.670983 -0.74862,-0.949668 -2.38066,-1.067464 -2.86531,-0.206809 -4.67973,0.926624 -4.67973,2.923347 0,1.72688 0.63968,2.34375 3.35032,3.23088 1.39538,0.456673 2.06166,0.992335 2.16871,1.743569 0.18713,1.313082 -1.44017,1.895638 -3.30805,1.184251 -1.81401,-0.690871 -2.21098,-0.599698 -2.21098,0.507805 0,1.613577 4.56158,2.155941 6.52808,0.776178 l 0,0 z m 8.67133,0.474125 c 0.64917,-0.174271 1.14954,-0.70729 1.14954,-1.224564 0,-0.809821 -0.20661,-0.852454 -1.78277,-0.367882 -1.50356,0.462247 -1.94365,0.402245 -2.80998,-0.383114 -1.62297,-1.471292 -1.24434,-1.796126 2.09361,-1.796126 l 3.12081,0 -0.35064,-1.4074 c -0.53083,-2.130618 -1.7566,-3.198636 -3.6711,-3.198636 -2.45038,0 -3.75259,1.496687 -3.75259,4.313 0,3.399855 2.40748,5.029969 6.00312,4.064722 z m 23.33209,0.01192 c 0.44448,-0.170856 0.80815,-0.73463 0.80815,-1.252833 0,-0.819558 -0.19477,-0.87417 -1.4965,-0.419607 -1.70791,0.596403 -3.61254,-0.12142 -3.61254,-1.361503 0,-0.567499 0.68281,-0.749667 2.80997,-0.749667 2.6567,0 2.80997,-0.06979 2.80997,-1.279454 0,-3.192463 -4.5751,-4.562714 -6.60467,-1.978109 -1.79541,2.286397 -1.19084,5.893374 1.14585,6.836464 1.34578,0.543159 3.0412,0.626996 4.13977,0.204708 l 0,10e-7 z m -64.26258,-4.123442 0.92311,-3.922308 0.96587,3.922308 c 0.84943,3.449424 1.1054,3.922305 2.12317,3.922305 1.03,0 1.27897,-0.492563 2.26349,-4.478091 0.60841,-2.46295 1.2269,-4.881119 1.37442,-5.373709 0.19144,-0.63922 -0.0177,-0.895618 -0.73078,-0.895618 -0.82021,0 -1.17637,0.709852 -1.99007,3.966309 l -0.99107,3.966309 -0.94775,-3.966309 c -0.81524,-3.411778 -1.1002,-3.966309 -2.03817,-3.966309 -0.93798,0 -1.22294,0.554531 -2.03818,3.966309 l -0.94775,3.966309 -0.99107,-3.966309 c -0.79862,-3.196108 -1.17838,-3.966309 -1.95564,-3.966309 -1.16215,0 -1.15613,-0.135573 -0.16729,3.76449 1.84374,7.27182 1.71919,6.982928 3.01062,6.982928 1.09215,0 1.30663,-0.39364 2.13709,-3.922307 l 0,2e-6 z m 45.65636,1.461213 c 0,-2.963236 0.8674,-4.356552 2.56037,-4.11273 0.97855,0.140933 1.47137,0.821825 2.44286,3.375186 1.01092,2.656979 1.41817,3.198636 2.40491,3.198636 0.99616,0 1.40128,-0.55936 2.50983,-3.465383 1.54419,-4.048053 1.62778,-4.858146 0.47798,-4.632706 -0.49488,0.09703 -1.29816,1.385454 -1.94212,3.115068 l -1.09817,2.949597 -1.05172,-2.949597 -1.05172,-2.949597 -3.39247,-0.05962 -3.39246,-0.05962 0,4.02593 c 0,3.237416 0.15009,4.02593 0.76635,4.02593 0.57496,0 0.76636,-0.614643 0.76636,-2.461092 z m 23.50161,-0.251351 c 0,-2.836965 0.60101,-3.94072 2.1458,-3.94072 0.50579,0 0.91962,-0.332266 0.91962,-0.738369 0,-0.547496 -0.66036,-0.733244 -2.55452,-0.718546 l -2.55452,0.01982 0,4.045129 c 0,3.70394 0.0862,4.045128 1.02181,4.045128 0.89328,0 1.02181,-0.341188 1.02181,-2.712443 z"
       id="path4057"
       inkscape:connector-curvature="0" />
    <path
       style="fill:#ff9900;fill-opacity:0;stroke:#255153;stroke-width:0.511343;stroke-opacity:0"
       d="m 200.5878,50.381137 c 6.27129,-0.08147 16.38721,-0.08138 22.4798,2.15e-4 6.0926,0.08159 0.96154,0.14825 -11.40235,0.148128 -12.36389,-1.14e-4 -17.34874,-0.06685 -11.07745,-0.148343 z"
       id="path4059"
       inkscape:connector-curvature="0" />
    <path
       style="fill:#ff9900;fill-opacity:0;stroke:#255153;stroke-width:0.511343;stroke-opacity:0"
       d="m 143.97041,27.990264 0,-21.7507289 44.70414,0 44.70414,0 0,21.7507289 0,21.750728 -44.70414,0 -44.70414,0 0,-21.750728 z m 25.75889,4.55128 c 0.44447,-0.170855 0.80814,-0.740909 0.80814,-1.266787 0,-0.82121 -0.18977,-0.883867 -1.34475,-0.443994 -1.65689,0.631033 -3.08523,0.221757 -3.78281,-1.083923 -0.49505,-0.926575 -0.334,-0.988904 2.55506,-0.988904 3.32095,0 3.70536,-0.418983 2.49601,-2.7205 -0.78477,-1.493506 -1.4259,-1.86837 -3.21146,-1.877699 -2.29615,-0.012 -3.86472,1.771544 -3.86472,4.394373 0,1.741916 0.26888,2.38852 1.34617,3.237372 1.3261,1.044902 3.41562,1.35846 4.99836,0.750062 l 0,0 z m 8.45156,-0.190332 c 1.22506,-0.656759 2.10459,-3.260852 1.73186,-5.127668 -0.44702,-2.238974 -1.85441,-3.265425 -3.99923,-2.916771 -1.7666,0.287172 -1.79972,0.260181 -1.79972,-1.466504 0,-1.222421 -0.23379,-1.759061 -0.76636,-1.759061 -0.63524,0 -0.76635,0.973331 -0.76635,5.68929 0,5.43638 0.0454,5.677397 1.0213,5.421755 0.56171,-0.147143 1.15005,-0.05885 1.30741,0.196202 0.37689,0.610871 2.09872,0.591267 3.27109,-0.03724 l 0,0 z m 9.61365,-0.295715 c 0.79703,-0.55922 1.13549,-1.318443 1.13549,-2.54711 0,-1.896026 -1.08914,-2.941873 -3.74532,-3.596447 -1.66438,-0.41016 -2.35381,-1.641948 -1.31045,-2.341325 0.3922,-0.262889 1.59317,-0.349202 2.66883,-0.191807 1.67841,0.245593 1.93135,0.157411 1.78376,-0.621877 -0.12709,-0.670983 -0.74862,-0.949668 -2.38066,-1.067464 -2.86531,-0.206809 -4.67973,0.926624 -4.67973,2.923347 0,1.72688 0.63968,2.34375 3.35032,3.23088 1.39538,0.456673 2.06166,0.992335 2.16871,1.743569 0.18713,1.313082 -1.44017,1.895638 -3.30805,1.184251 -1.81401,-0.690871 -2.21098,-0.599698 -2.21098,0.507805 0,1.613577 4.56158,2.155941 6.52808,0.776178 l 0,0 z m 8.67133,0.474125 c 0.64917,-0.174271 1.14954,-0.70729 1.14954,-1.224564 0,-0.809821 -0.20661,-0.852454 -1.78277,-0.367882 -1.50356,0.462247 -1.94365,0.402245 -2.80998,-0.383114 -1.62297,-1.471292 -1.24434,-1.796126 2.09361,-1.796126 l 3.12081,0 -0.35064,-1.4074 c -0.53083,-2.130618 -1.7566,-3.198636 -3.6711,-3.198636 -2.45038,0 -3.75259,1.496687 -3.75259,4.313 0,3.399855 2.40748,5.029969 6.00312,4.064722 z m 23.33209,0.01192 c 0.44448,-0.170856 0.80815,-0.73463 0.80815,-1.252833 0,-0.819558 -0.19477,-0.87417 -1.4965,-0.419607 -1.70791,0.596403 -3.61254,-0.12142 -3.61254,-1.361503 0,-0.567499 0.68281,-0.749667 2.80997,-0.749667 2.6567,0 2.80997,-0.06979 2.80997,-1.279454 0,-3.192463 -4.5751,-4.562714 -6.60467,-1.978109 -1.79541,2.286397 -1.19084,5.893374 1.14585,6.836464 1.34578,0.543159 3.0412,0.626996 4.13977,0.204708 l 0,10e-7 z m -64.26258,-4.123442 0.92311,-3.922308 0.96587,3.922308 c 0.84943,3.449424 1.1054,3.922305 2.12317,3.922305 1.03,0 1.27897,-0.492563 2.26349,-4.478091 0.60841,-2.46295 1.2269,-4.881119 1.37442,-5.373709 0.19144,-0.63922 -0.0177,-0.895618 -0.73078,-0.895618 -0.82021,0 -1.17637,0.709852 -1.99007,3.966309 l -0.99107,3.966309 -0.94775,-3.966309 c -0.81524,-3.411778 -1.1002,-3.966309 -2.03817,-3.966309 -0.93798,0 -1.22294,0.554531 -2.03818,3.966309 l -0.94775,3.966309 -0.99107,-3.966309 c -0.79862,-3.196108 -1.17838,-3.966309 -1.95564,-3.966309 -1.16215,0 -1.15613,-0.135573 -0.16729,3.76449 1.84374,7.27182 1.71919,6.982928 3.01062,6.982928 1.09215,0 1.30663,-0.39364 2.13709,-3.922307 l 0,2e-6 z m 45.65636,1.461213 c 0,-2.963236 0.8674,-4.356552 2.56037,-4.11273 0.97855,0.140933 1.47137,0.821825 2.44286,3.375186 1.01092,2.656979 1.41817,3.198636 2.40491,3.198636 0.99616,0 1.40128,-0.55936 2.50983,-3.465383 1.54419,-4.048053 1.62778,-4.858146 0.47798,-4.632706 -0.49488,0.09703 -1.29816,1.385454 -1.94212,3.115068 l -1.09817,2.949597 -1.05172,-2.949597 -1.05172,-2.949597 -3.39247,-0.05962 -3.39246,-0.05962 0,4.02593 c 0,3.237416 0.15009,4.02593 0.76635,4.02593 0.57496,0 0.76636,-0.614643 0.76636,-2.461092 z m 23.50161,-0.251351 c 0,-2.836965 0.60101,-3.94072 2.1458,-3.94072 0.50579,0 0.91962,-0.332266 0.91962,-0.738369 0,-0.547496 -0.66036,-0.733244 -2.55452,-0.718546 l -2.55452,0.01982 0,4.045129 c 0,3.70394 0.0862,4.045128 1.02181,4.045128 0.89328,0 1.02181,-0.341188 1.02181,-2.712443 z"
       id="path4061"
       inkscape:connector-curvature="0" />
    <path
       style="fill:#ff9900;fill-opacity:0;stroke:#255153;stroke-width:0.511343;stroke-opacity:0"
       d="m 143.97041,27.990264 0,-21.7507289 44.70414,0 44.70414,0 0,21.7507289 0,21.750728 -44.70414,0 -44.70414,0 0,-21.750728 z m 25.75889,4.55128 c 0.44447,-0.170855 0.80814,-0.740909 0.80814,-1.266787 0,-0.82121 -0.18977,-0.883867 -1.34475,-0.443994 -1.65689,0.631033 -3.08523,0.221757 -3.78281,-1.083923 -0.49505,-0.926575 -0.334,-0.988904 2.55506,-0.988904 3.32095,0 3.70536,-0.418983 2.49601,-2.7205 -0.78477,-1.493506 -1.4259,-1.86837 -3.21146,-1.877699 -2.29615,-0.012 -3.86472,1.771544 -3.86472,4.394373 0,1.741916 0.26888,2.38852 1.34617,3.237372 1.3261,1.044902 3.41562,1.35846 4.99836,0.750062 l 0,0 z m 8.45156,-0.190332 c 1.22506,-0.656759 2.10459,-3.260852 1.73186,-5.127668 -0.44702,-2.238974 -1.85441,-3.265425 -3.99923,-2.916771 -1.7666,0.287172 -1.79972,0.260181 -1.79972,-1.466504 0,-1.222421 -0.23379,-1.759061 -0.76636,-1.759061 -0.63524,0 -0.76635,0.973331 -0.76635,5.68929 0,5.43638 0.0454,5.677397 1.0213,5.421755 0.56171,-0.147143 1.15005,-0.05885 1.30741,0.196202 0.37689,0.610871 2.09872,0.591267 3.27109,-0.03724 l 0,0 z m 9.61365,-0.295715 c 0.79703,-0.55922 1.13549,-1.318443 1.13549,-2.54711 0,-1.896026 -1.08914,-2.941873 -3.74532,-3.596447 -1.66438,-0.41016 -2.35381,-1.641948 -1.31045,-2.341325 0.3922,-0.262889 1.59317,-0.349202 2.66883,-0.191807 1.67841,0.245593 1.93135,0.157411 1.78376,-0.621877 -0.12709,-0.670983 -0.74862,-0.949668 -2.38066,-1.067464 -2.86531,-0.206809 -4.67973,0.926624 -4.67973,2.923347 0,1.72688 0.63968,2.34375 3.35032,3.23088 1.39538,0.456673 2.06166,0.992335 2.16871,1.743569 0.18713,1.313082 -1.44017,1.895638 -3.30805,1.184251 -1.81401,-0.690871 -2.21098,-0.599698 -2.21098,0.507805 0,1.613577 4.56158,2.155941 6.52808,0.776178 l 0,0 z m 8.67133,0.474125 c 0.64917,-0.174271 1.14954,-0.70729 1.14954,-1.224564 0,-0.809821 -0.20661,-0.852454 -1.78277,-0.367882 -1.50356,0.462247 -1.94365,0.402245 -2.80998,-0.383114 -1.62297,-1.471292 -1.24434,-1.796126 2.09361,-1.796126 l 3.12081,0 -0.35064,-1.4074 c -0.53083,-2.130618 -1.7566,-3.198636 -3.6711,-3.198636 -2.45038,0 -3.75259,1.496687 -3.75259,4.313 0,3.399855 2.40748,5.029969 6.00312,4.064722 z m 23.33209,0.01192 c 0.44448,-0.170856 0.80815,-0.73463 0.80815,-1.252833 0,-0.819558 -0.19477,-0.87417 -1.4965,-0.419607 -1.70791,0.596403 -3.61254,-0.12142 -3.61254,-1.361503 0,-0.567499 0.68281,-0.749667 2.80997,-0.749667 2.6567,0 2.80997,-0.06979 2.80997,-1.279454 0,-3.192463 -4.5751,-4.562714 -6.60467,-1.978109 -1.79541,2.286397 -1.19084,5.893374 1.14585,6.836464 1.34578,0.543159 3.0412,0.626996 4.13977,0.204708 l 0,10e-7 z m -64.26258,-4.123442 0.92311,-3.922308 0.96587,3.922308 c 0.84943,3.449424 1.1054,3.922305 2.12317,3.922305 1.03,0 1.27897,-0.492563 2.26349,-4.478091 0.60841,-2.46295 1.2269,-4.881119 1.37442,-5.373709 0.19144,-0.63922 -0.0177,-0.895618 -0.73078,-0.895618 -0.82021,0 -1.17637,0.709852 -1.99007,3.966309 l -0.99107,3.966309 -0.94775,-3.966309 c -0.81524,-3.411778 -1.1002,-3.966309 -2.03817,-3.966309 -0.93798,0 -1.22294,0.554531 -2.03818,3.966309 l -0.94775,3.966309 -0.99107,-3.966309 c -0.79862,-3.196108 -1.17838,-3.966309 -1.95564,-3.966309 -1.16215,0 -1.15613,-0.135573 -0.16729,3.76449 1.84374,7.27182 1.71919,6.982928 3.01062,6.982928 1.09215,0 1.30663,-0.39364 2.13709,-3.922307 l 0,2e-6 z m 45.65636,1.461213 c 0,-2.963236 0.8674,-4.356552 2.56037,-4.11273 0.97855,0.140933 1.47137,0.821825 2.44286,3.375186 1.01092,2.656979 1.41817,3.198636 2.40491,3.198636 0.99616,0 1.40128,-0.55936 2.50983,-3.465383 1.54419,-4.048053 1.62778,-4.858146 0.47798,-4.632706 -0.49488,0.09703 -1.29816,1.385454 -1.94212,3.115068 l -1.09817,2.949597 -1.05172,-2.949597 -1.05172,-2.949597 -3.39247,-0.05962 -3.39246,-0.05962 0,4.02593 c 0,3.237416 0.15009,4.02593 0.76635,4.02593 0.57496,0 0.76636,-0.614643 0.76636,-2.461092 z m 23.50161,-0.251351 c 0,-2.836965 0.60101,-3.94072 2.1458,-3.94072 0.50579,0 0.91962,-0.332266 0.91962,-0.738369 0,-0.547496 -0.66036,-0.733244 -2.55452,-0.718546 l -2.55452,0.01982 0,4.045129 c 0,3.70394 0.0862,4.045128 1.02181,4.045128 0.89328,0 1.02181,-0.341188 1.02181,-2.712443 z"
       id="path4064"
       inkscape:connector-curvature="0" />
    <path
       style="fill:#ff9900;fill-opacity:0;stroke:#255153;stroke-width:0.511343;stroke-opacity:0"
       d="m 143.97041,27.990264 0,-21.7507289 44.70414,0 44.70414,0 0,21.7507289 0,21.750728 -44.70414,0 -44.70414,0 0,-21.750728 z m 25.75889,4.55128 c 0.44447,-0.170855 0.80814,-0.740909 0.80814,-1.266787 0,-0.82121 -0.18977,-0.883867 -1.34475,-0.443994 -1.65689,0.631033 -3.08523,0.221757 -3.78281,-1.083923 -0.49505,-0.926575 -0.334,-0.988904 2.55506,-0.988904 3.32095,0 3.70536,-0.418983 2.49601,-2.7205 -0.78477,-1.493506 -1.4259,-1.86837 -3.21146,-1.877699 -2.29615,-0.012 -3.86472,1.771544 -3.86472,4.394373 0,1.741916 0.26888,2.38852 1.34617,3.237372 1.3261,1.044902 3.41562,1.35846 4.99836,0.750062 l 0,0 z m 8.45156,-0.190332 c 0.921,-0.493756 2.30094,-3.526282 1.82264,-4.005407 -0.13515,-0.135383 -0.38268,0.189839 -0.55007,0.722717 -0.52114,1.659055 -1.04264,2.43456 -1.79983,2.67647 -0.53061,0.169521 -0.48577,-0.04273 0.16422,-0.77751 0.49175,-0.555878 0.89409,-1.475495 0.89409,-2.043591 0,-1.328528 -1.64884,-3.236646 -2.79684,-3.236646 -0.56627,0 -0.78572,-0.269122 -0.60472,-0.741609 0.18988,-0.495672 0.0385,-0.647234 -0.45625,-0.457027 -0.56218,0.216102 -0.74033,-0.159624 -0.74033,-1.561409 0,-1.299693 -0.22679,-1.845992 -0.76636,-1.845992 -0.63988,0 -0.74985,0.907959 -0.66635,5.501655 l 0.10001,5.501655 0.31089,-5.37371 c 0.17099,-2.95554 0.35589,-4.394926 0.4109,-3.198636 0.055,1.19629 0.3227,2.175073 0.59488,2.175073 0.27217,0 0.37656,0.308839 0.23196,0.686307 -0.66279,1.730159 -0.50351,5.219775 0.26578,5.822635 0.97345,0.762867 2.34124,0.822008 3.58538,0.155025 l 0,0 z m 18.28498,0.17841 c 0.64917,-0.174271 1.14954,-0.70729 1.14954,-1.224564 0,-0.809821 -0.20661,-0.852454 -1.78277,-0.367882 -1.50356,0.462247 -1.94365,0.402245 -2.80998,-0.383114 -1.62297,-1.471292 -1.24434,-1.796126 2.09361,-1.796126 l 3.12081,0 -0.35064,-1.4074 c -0.53083,-2.130618 -1.7566,-3.198636 -3.6711,-3.198636 -2.45038,0 -3.75259,1.496687 -3.75259,4.313 0,3.399855 2.40748,5.029969 6.00312,4.064722 z m 23.33209,0.01192 c 0.44448,-0.170856 0.80815,-0.73463 0.80815,-1.252833 0,-0.819558 -0.19477,-0.87417 -1.4965,-0.419607 -1.70791,0.596403 -3.61254,-0.12142 -3.61254,-1.361503 0,-0.567499 0.68281,-0.749667 2.80997,-0.749667 2.6567,0 2.80997,-0.06979 2.80997,-1.279454 0,-3.192463 -4.5751,-4.562714 -6.60467,-1.978109 -1.79541,2.286397 -1.19084,5.893374 1.14585,6.836464 1.34578,0.543159 3.0412,0.626996 4.13977,0.204708 l 0,10e-7 z m -64.26258,-4.123442 0.92311,-3.922308 0.96587,3.922308 c 0.84943,3.449424 1.1054,3.922305 2.12317,3.922305 1.03,0 1.27897,-0.492563 2.26349,-4.478091 0.60841,-2.46295 1.2269,-4.881119 1.37442,-5.373709 0.19144,-0.63922 -0.0177,-0.895618 -0.73078,-0.895618 -0.82021,0 -1.17637,0.709852 -1.99007,3.966309 l -0.99107,3.966309 -0.94775,-3.966309 c -0.81524,-3.411778 -1.1002,-3.966309 -2.03817,-3.966309 -0.93798,0 -1.22294,0.554531 -2.03818,3.966309 l -0.94775,3.966309 -0.99107,-3.966309 c -0.79862,-3.196108 -1.17838,-3.966309 -1.95564,-3.966309 -1.16215,0 -1.15613,-0.135573 -0.16729,3.76449 1.84374,7.27182 1.71919,6.982928 3.01062,6.982928 1.09215,0 1.30663,-0.39364 2.13709,-3.922307 l 0,2e-6 z m 45.65636,1.461213 c 0,-2.963236 0.8674,-4.356552 2.56037,-4.11273 0.97855,0.140933 1.47137,0.821825 2.44286,3.375186 1.01092,2.656979 1.41817,3.198636 2.40491,3.198636 0.99616,0 1.40128,-0.55936 2.50983,-3.465383 1.54419,-4.048053 1.62778,-4.858146 0.47798,-4.632706 -0.49488,0.09703 -1.29816,1.385454 -1.94212,3.115068 l -1.09817,2.949597 -1.05172,-2.949597 -1.05172,-2.949597 -3.39247,-0.05962 -3.39246,-0.05962 0,4.02593 c 0,3.237416 0.15009,4.02593 0.76635,4.02593 0.57496,0 0.76636,-0.614643 0.76636,-2.461092 z m 23.50161,-0.251351 c 0,-2.836965 0.60101,-3.94072 2.1458,-3.94072 0.50579,0 0.91962,-0.332266 0.91962,-0.738369 0,-0.547496 -0.66036,-0.733244 -2.55452,-0.718546 l -2.55452,0.01982 0,4.045129 c 0,3.70394 0.0862,4.045128 1.02181,4.045128 0.89328,0 1.02181,-0.341188 1.02181,-2.712443 z m -41.10885,1.759437 c 2.23459,0.618059 3.81282,-0.152585 3.81282,-1.861794 0,-1.280153 -1.27197,-2.303018 -2.86389,-2.303018 -1.12998,0 -2.75606,-1.4573 -2.75606,-2.469985 0,-1.467281 1.61639,-2.647833 3.62536,-2.647833 1.06385,0 2.06286,0.208394 2.22,0.463097 0.16129,0.261424 -0.55791,0.349749 -1.65148,0.202819 -3.53837,-0.47541 -4.46246,2.696748 -1.06883,3.668975 1.01182,0.28987 2.217,0.843113 2.67819,1.229429 0.99464,0.833172 1.09571,2.658164 0.19989,3.609369 -0.5154,0.547256 -0.49075,0.633471 0.12772,0.446779 0.95965,-0.289678 1.30036,-3.293888 0.48516,-4.277836 -0.33351,-0.402538 -1.52266,-1.006885 -2.64256,-1.342993 -3.61869,-1.086046 -2.98159,-3.277812 0.79227,-2.725604 1.67841,0.245594 1.93135,0.157412 1.78376,-0.621876 -0.12709,-0.670984 -0.74862,-0.949669 -2.38066,-1.067465 -2.86531,-0.206809 -4.67973,0.926624 -4.67973,2.923348 0,1.726879 0.63968,2.343749 3.35032,3.230879 1.39538,0.456674 2.06166,0.992336 2.16871,1.743569 0.18713,1.313082 -1.44017,1.895638 -3.30805,1.184252 -1.78958,-0.681566 -2.21644,-0.599487 -2.17065,0.417385 0.0222,0.49259 0.14903,0.629593 0.28188,0.304451 0.172,-0.42099 0.74653,-0.451489 1.99583,-0.105948 l 0,0 z m -4.65151,-6.250018 c -0.48968,-0.542017 -1.37198,-0.95877 -1.96067,-0.926117 -0.86277,0.04785 -0.89695,0.10476 -0.17627,0.293416 0.49174,0.128728 0.89408,0.486906 0.89408,0.795953 0,0.309047 0.40234,1.008497 0.89408,1.554334 0.8047,0.893205 0.91134,0.906219 1.06659,0.130164 0.0949,-0.474246 -0.22813,-1.305733 -0.71781,-1.84775 l 0,0 z"
       id="path4066"
       inkscape:connector-curvature="0" />
    <path
       style="fill:#ff9900;fill-opacity:0;stroke:#255153;stroke-width:0.511343;stroke-opacity:0"
       d="m 143.4595,85.821612 0,-21.750728 45.21505,0 45.21505,0 0,21.750728 0,21.750728 -45.21505,0 -45.21505,0 0,-21.750728 z m 34.07092,16.230828 c 1.09151,-0.69525 1.69239,-3.180266 1.69239,-6.999139 l 0,-3.752117 -2.82902,-0.03382 c -3.50801,-0.04199 -4.83455,1.030427 -4.83455,3.908363 0,2.966646 1.21949,4.345569 3.63873,4.114456 2.11849,-0.202374 2.44276,0.09643 1.2136,1.118287 -0.4556,0.37877 -1.39013,0.51346 -2.29907,0.33136 -1.28777,-0.258 -1.53144,-0.14599 -1.53144,0.70395 0,0.84918 0.34712,1.00952 2.17134,1.00294 1.19424,-0.004 2.44434,-0.18173 2.77802,-0.39426 z m -14.27417,-3.944959 c 0.82545,-0.961285 1.15033,-1.991518 1.15033,-3.64776 0,-3.951704 -1.53308,-5.780657 -4.86764,-5.807031 -2.58588,-0.02042 -4.08211,1.011332 -4.85105,3.345249 -0.85776,2.60349 -0.25036,5.027048 1.66436,6.640944 1.35208,1.139657 1.95807,1.318214 3.68588,1.086063 1.36567,-0.183487 2.45838,-0.732695 3.21812,-1.617465 l 0,0 z m 23.5024,1.25441 c 1.06884,0.0097 1.14954,-0.210843 1.14954,-3.14213 0,-2.215336 -0.25138,-3.430855 -0.84554,-4.088525 -1.31408,-1.454535 -5.79622,-1.170545 -5.79622,0.367246 0,0.473825 0.64573,0.652304 2.11639,0.584975 1.30836,-0.0599 2.2024,0.147347 2.34165,0.54283 0.15034,0.42696 -0.32777,0.63973 -1.43753,0.63973 -3.03338,0 -4.63761,2.913045 -2.68267,4.871339 0.60016,0.601189 1.31094,0.757048 2.4268,0.532133 0.86793,-0.174939 2.09534,-0.313359 2.72758,-0.307598 l 0,0 z m 21.50122,-0.283438 c 0.81398,-0.571125 1.11741,-1.226001 1.00775,-2.17507 -0.12539,-1.08526 -0.59382,-1.509217 -2.33295,-2.111431 -2.58687,-0.895775 -2.55603,-1.828924 0.0577,-1.747021 1.49782,0.04693 1.86286,-0.128568 1.86286,-0.895618 0,-0.788739 -0.3962,-0.953991 -2.28729,-0.953991 -1.85919,0 -2.43973,0.233047 -3.10174,1.245138 -1.06248,1.624344 -0.30074,3.151803 1.80259,3.614565 1.77936,0.391485 2.40288,1.136647 1.61309,1.927793 -0.39974,0.400427 -1.06201,0.401359 -2.35674,0.0036 -1.6065,-0.493909 -1.80076,-0.452424 -1.80076,0.384499 0,1.561736 3.6527,2.028803 5.53544,0.707811 z m 8.64215,0.494589 c 0.66929,-0.179668 1.14953,-0.705984 1.14953,-1.259798 0,-0.809589 -0.19511,-0.876896 -1.31051,-0.452094 -1.81923,0.692858 -2.57606,0.627005 -3.50658,-0.305112 -1.3816,-1.383974 -0.90155,-1.754681 2.2723,-1.754681 l 3.07516,0 -0.3338,-1.407396 c -0.49805,-2.099916 -1.69444,-3.198639 -3.48294,-3.198639 -3.23388,0 -5.15408,3.027039 -3.87793,6.113232 0.88913,2.150221 3.19982,3.020166 6.01477,2.264488 z m -48.91911,-2.525873 c 0,-2.984164 0.71519,-4.3165 2.31705,-4.3165 0.75678,0 1.25928,-0.294758 1.25928,-0.738663 0,-0.552976 -0.64215,-0.72401 -2.55451,-0.680376 l -2.55453,0.05832 0,4.00696 c 0,3.22055 0.15041,4.006953 0.76636,4.006953 0.5693,0 0.76635,-0.600817 0.76635,-2.336661 z m 24.01251,-0.415473 c 0,-3.106556 0.96968,-4.505318 2.46963,-3.562483 0.59473,0.373831 0.89743,1.405891 1.00447,3.424851 0.11204,2.112735 0.35244,2.889766 0.89409,2.889766 0.56579,0 0.74086,-0.733597 0.74086,-3.104334 0,-4.560775 -0.41532,-5.069157 -4.09882,-5.017211 l -3.05384,0.04306 0,4.039238 c 0,3.698057 0.0863,4.039245 1.02181,4.039245 0.89513,0 1.0218,-0.341188 1.0218,-2.752134 z m 9.19629,-1.342117 c 0,-3.298153 -0.14902,-4.094257 -0.76636,-4.094257 -0.61734,0 -0.76635,0.796104 -0.76635,4.094257 0,3.298147 0.14901,4.094251 0.76635,4.094251 0.61734,0 0.76636,-0.796104 0.76636,-4.094251 z m 20.43617,1.75759 c 0,-2.984164 0.71519,-4.3165 2.31705,-4.3165 0.75678,0 1.25929,-0.294758 1.25929,-0.738663 0,-0.552976 -0.64215,-0.72401 -2.55452,-0.680376 l -2.55452,0.05832 0,4.00696 c 0,3.22055 0.1504,4.006953 0.76635,4.006953 0.56931,0 0.76635,-0.600817 0.76635,-2.336661 z m -20.43617,-7.898973 c 0,-0.568646 -0.34061,-1.023562 -0.76636,-1.023562 -0.42575,0 -0.76635,0.454916 -0.76635,1.023562 0,0.568646 0.3406,1.023563 0.76635,1.023563 0.42575,0 0.76636,-0.454917 0.76636,-1.023563 z m -23.11843,-7.487518 c 0.67616,-0.18151 1.14953,-0.705511 1.14953,-1.272466 0,-1.132656 -0.0637,-1.146026 -1.76412,-0.36994 -1.54922,0.707079 -3.85582,-0.100883 -3.85582,-1.350636 0,-0.602622 0.63522,-0.778643 2.80997,-0.778643 2.6567,0 2.80997,-0.06979 2.80997,-1.279452 0,-3.192463 -4.5751,-4.562719 -6.60467,-1.978112 -1.15318,1.468549 -1.37293,3.760622 -0.51459,5.367203 0.88051,1.648081 3.40431,2.350733 5.96973,1.662046 l 0,0 z m 8.51586,0.01189 c 0.44448,-0.170863 0.80815,-0.656431 0.80815,-1.079048 0,-0.572401 -0.33961,-0.68302 -1.33137,-0.433673 -2.87787,0.723538 -4.96819,-2.540568 -2.93272,-4.57954 0.61716,-0.618205 1.31761,-0.757592 2.59802,-0.516972 1.50771,0.283331 1.72847,0.199701 1.57747,-0.597542 -0.19313,-1.019536 -2.26786,-1.472084 -4.34949,-0.948732 -2.80062,0.704121 -3.20385,6.555811 -0.54043,7.842771 1.31667,0.636218 3.00037,0.762479 4.17037,0.312728 l 0,8e-6 z m 8.59944,-0.19551 c 0.77654,-0.005 0.89408,-0.543927 0.89408,-4.099883 0,-3.75307 -0.0851,-4.094257 -1.0218,-4.094257 -0.90761,0 -1.02181,0.341187 -1.02181,3.052682 0,2.580742 -0.16646,3.141922 -1.07666,3.629891 -1.57135,0.842397 -2.14087,-0.01283 -2.40021,-3.604262 -0.15657,-2.168335 -0.43067,-3.078311 -0.92723,-3.078311 -0.52889,0 -0.70495,0.852729 -0.70495,3.414232 0,4.282811 0.87582,5.529669 3.5704,5.082963 0.98676,-0.163583 2.19644,-0.299953 2.68818,-0.303055 l 0,0 z m 17.91525,-0.08225 c 1.58059,-0.83339 1.86561,-1.424821 1.87447,-3.889691 0.01,-2.72048 -1.32213,-4.222202 -3.74477,-4.222202 -2.38991,0 -3.65551,1.540356 -3.65551,4.449094 0,3.478022 2.60338,5.203685 5.52581,3.662799 z m -50.74087,-0.691059 c 0,-0.589324 -0.65282,-0.767666 -2.80997,-0.767666 -2.78159,0 -2.80997,-0.01548 -2.80997,-1.535348 0,-1.501228 0.0568,-1.535347 2.55452,-1.535347 2.21392,0 2.55452,-0.136478 2.55452,-1.023563 0,-0.887092 -0.3406,-1.023563 -2.55452,-1.023563 -2.38423,0 -2.55452,-0.0853 -2.55452,-1.279458 0,-1.194156 0.17029,-1.279455 2.55452,-1.279455 1.93008,0 2.55452,-0.187657 2.55452,-0.767674 0,-0.609264 -0.73797,-0.767673 -3.57633,-0.767673 l -3.57633,0 0,5.373712 0,5.373709 3.83178,0 c 3.06543,0 3.83178,-0.15353 3.83178,-0.767674 z m 3.79032,-0.520189 0.84239,-1.28787 1.15542,1.345562 c 0.64028,0.745649 1.54763,1.2628 2.03511,1.159926 0.77359,-0.163253 0.71596,-0.415395 -0.47783,-2.090588 l -1.35752,-1.904937 1.34875,-1.771332 c 1.60939,-2.113645 1.64676,-2.351406 0.36954,-2.351406 -0.53855,0 -1.42684,0.615576 -1.97395,1.367938 l -0.99477,1.367939 -0.89477,-1.367939 c -0.49213,-0.752362 -1.32815,-1.367938 -1.85783,-1.367938 -1.2666,0 -1.21756,0.336795 0.34852,2.393564 l 1.31157,1.722511 -1.60995,2.036213 -1.60995,2.03622 1.26143,0 c 0.78395,0 1.5803,-0.487489 2.10384,-1.287863 z m 36.57114,0.520189 c 0,-0.477658 -0.48252,-0.767666 -1.27726,-0.767666 -1.19211,0 -1.27726,-0.170598 -1.27726,-2.558911 0,-2.38832 0.0851,-2.55891 1.27726,-2.55891 0.79474,0 1.27726,-0.290008 1.27726,-0.767674 0,-0.477665 -0.48252,-0.767673 -1.27726,-0.767673 -0.93665,0 -1.27726,-0.272952 -1.27726,-1.023566 0,-0.682375 -0.34061,-1.023562 -1.02181,-1.023562 -0.68121,0 -1.02181,0.341187 -1.02181,1.023562 0,0.562957 -0.22991,1.023566 -0.5109,1.023566 -0.281,0 -0.51091,0.34545 -0.51091,0.767673 0,0.422224 0.22991,0.767674 0.51091,0.767674 0.28099,0 0.5109,1.220599 0.5109,2.712441 0,1.491849 0.27589,2.988807 0.61308,3.326584 0.91115,0.912699 3.98506,0.79427 3.98506,-0.153538 z m 3.06543,-3.326577 c 0,-3.75307 -0.0851,-4.094257 -1.02181,-4.094257 -0.93666,0 -1.02181,0.341187 -1.02181,4.094257 0,3.753063 0.0851,4.094251 1.02181,4.094251 0.93666,0 1.02181,-0.341188 1.02181,-4.094251 z m 12.77261,1.75759 c 0,-2.788905 0.71025,-4.3165 2.00693,-4.3165 1.20076,0 1.5694,0.971531 1.5694,4.136108 0,2.229624 0.12467,2.517053 1.09176,2.517053 1.03061,0 1.0768,-0.186604 0.82479,-3.331556 -0.34645,-4.323436 -0.81015,-4.839921 -4.26357,-4.748905 l -2.76202,0.0728 0,4.003829 c 0,3.217777 0.15045,4.003836 0.76635,4.003836 0.56931,0 0.76636,-0.600817 0.76636,-2.336661 z m -12.77261,-7.898975 c 0,-0.682376 -0.34061,-1.023563 -1.02181,-1.023563 -0.6812,0 -1.02181,0.341187 -1.02181,1.023563 0,0.682375 0.34061,1.023562 1.02181,1.023562 0.6812,0 1.02181,-0.341187 1.02181,-1.023562 z"
       id="path4075"
       inkscape:connector-curvature="0" />
    <path
       style="fill:#ff9900;fill-opacity:0;stroke:#255153;stroke-width:0.511343;stroke-opacity:0"
       d="m 143.4595,85.821612 0,-21.750728 45.21505,0 45.21505,0 0,21.750728 0,21.750728 -45.21505,0 -45.21505,0 0,-21.750728 z m 34.07092,16.230828 c 1.09151,-0.69525 1.69239,-3.180266 1.69239,-6.999139 l 0,-3.752117 -2.82902,-0.03382 c -3.50801,-0.04199 -4.83455,1.030427 -4.83455,3.908363 0,2.966646 1.21949,4.345569 3.63873,4.114456 2.11849,-0.202374 2.44276,0.09643 1.2136,1.118287 -0.4556,0.37877 -1.39013,0.51346 -2.29907,0.33136 -1.28777,-0.258 -1.53144,-0.14599 -1.53144,0.70395 0,0.84918 0.34712,1.00952 2.17134,1.00294 1.19424,-0.004 2.44434,-0.18173 2.77802,-0.39426 z m -14.27417,-3.944959 c 0.82545,-0.961285 1.15033,-1.991518 1.15033,-3.64776 0,-3.951704 -1.53308,-5.780657 -4.86764,-5.807031 -2.58588,-0.02042 -4.08211,1.011332 -4.85105,3.345249 -0.85776,2.60349 -0.25036,5.027048 1.66436,6.640944 1.35208,1.139657 1.95807,1.318214 3.68588,1.086063 1.36567,-0.183487 2.45838,-0.732695 3.21812,-1.617465 l 0,0 z m 23.5024,1.25441 c 1.06884,0.0097 1.14954,-0.210843 1.14954,-3.14213 0,-2.215336 -0.25138,-3.430855 -0.84554,-4.088525 -1.31408,-1.454535 -5.79622,-1.170545 -5.79622,0.367246 0,0.473825 0.64573,0.652304 2.11639,0.584975 1.30836,-0.0599 2.2024,0.147347 2.34165,0.54283 0.15034,0.42696 -0.32777,0.63973 -1.43753,0.63973 -3.03338,0 -4.63761,2.913045 -2.68267,4.871339 0.60016,0.601189 1.31094,0.757048 2.4268,0.532133 0.86793,-0.174939 2.09534,-0.313359 2.72758,-0.307598 l 0,0 z m 21.50122,-0.283438 c 0.81398,-0.571125 1.11741,-1.226001 1.00775,-2.17507 -0.12539,-1.08526 -0.59382,-1.509217 -2.33295,-2.111431 -2.58687,-0.895775 -2.55603,-1.828924 0.0577,-1.747021 1.49782,0.04693 1.86286,-0.128568 1.86286,-0.895618 0,-0.788739 -0.3962,-0.953991 -2.28729,-0.953991 -1.85919,0 -2.43973,0.233047 -3.10174,1.245138 -1.06248,1.624344 -0.30074,3.151803 1.80259,3.614565 1.77936,0.391485 2.40288,1.136647 1.61309,1.927793 -0.39974,0.400427 -1.06201,0.401359 -2.35674,0.0036 -1.6065,-0.493909 -1.80076,-0.452424 -1.80076,0.384499 0,1.561736 3.6527,2.028803 5.53544,0.707811 z m 8.64215,0.494589 c 0.66929,-0.179668 1.14953,-0.705984 1.14953,-1.259798 0,-0.809589 -0.19511,-0.876896 -1.31051,-0.452094 -1.81923,0.692858 -2.57606,0.627005 -3.50658,-0.305112 -1.3816,-1.383974 -0.90155,-1.754681 2.2723,-1.754681 l 3.07516,0 -0.3338,-1.407396 c -0.49805,-2.099916 -1.69444,-3.198639 -3.48294,-3.198639 -3.23388,0 -5.15408,3.027039 -3.87793,6.113232 0.88913,2.150221 3.19982,3.020166 6.01477,2.264488 z m -48.91911,-2.525873 c 0,-2.984164 0.71519,-4.3165 2.31705,-4.3165 0.75678,0 1.25928,-0.294758 1.25928,-0.738663 0,-0.552976 -0.64215,-0.72401 -2.55451,-0.680376 l -2.55453,0.05832 0,4.00696 c 0,3.22055 0.15041,4.006953 0.76636,4.006953 0.5693,0 0.76635,-0.600817 0.76635,-2.336661 z m 24.01251,-0.415473 c 0,-3.106556 0.96968,-4.505318 2.46963,-3.562483 0.59473,0.373831 0.89743,1.405891 1.00447,3.424851 0.11204,2.112735 0.35244,2.889766 0.89409,2.889766 0.56579,0 0.74086,-0.733597 0.74086,-3.104334 0,-4.560775 -0.41532,-5.069157 -4.09882,-5.017211 l -3.05384,0.04306 0,4.039238 c 0,3.698057 0.0863,4.039245 1.02181,4.039245 0.89513,0 1.0218,-0.341188 1.0218,-2.752134 z m 9.19629,-1.342117 c 0,-3.298153 -0.14902,-4.094257 -0.76636,-4.094257 -0.61734,0 -0.76635,0.796104 -0.76635,4.094257 0,3.298147 0.14901,4.094251 0.76635,4.094251 0.61734,0 0.76636,-0.796104 0.76636,-4.094251 z m 20.43617,1.75759 c 0,-2.984164 0.71519,-4.3165 2.31705,-4.3165 0.75678,0 1.25929,-0.294758 1.25929,-0.738663 0,-0.552976 -0.64215,-0.72401 -2.55452,-0.680376 l -2.55452,0.05832 0,4.00696 c 0,3.22055 0.1504,4.006953 0.76635,4.006953 0.56931,0 0.76635,-0.600817 0.76635,-2.336661 z m -20.43617,-7.898973 c 0,-0.568646 -0.34061,-1.023562 -0.76636,-1.023562 -0.42575,0 -0.76635,0.454916 -0.76635,1.023562 0,0.568646 0.3406,1.023563 0.76635,1.023563 0.42575,0 0.76636,-0.454917 0.76636,-1.023563 z m -23.11843,-7.487518 c 0.67616,-0.18151 1.14953,-0.705511 1.14953,-1.272466 0,-1.132656 -0.0637,-1.146026 -1.76412,-0.36994 -1.54922,0.707079 -3.85582,-0.100883 -3.85582,-1.350636 0,-0.602622 0.63522,-0.778643 2.80997,-0.778643 2.6567,0 2.80997,-0.06979 2.80997,-1.279452 0,-3.192463 -4.5751,-4.562719 -6.60467,-1.978112 -1.15318,1.468549 -1.37293,3.760622 -0.51459,5.367203 0.88051,1.648081 3.40431,2.350733 5.96973,1.662046 l 0,0 z m 8.51586,0.01189 c 0.44448,-0.170863 0.80815,-0.656431 0.80815,-1.079048 0,-0.572401 -0.33961,-0.68302 -1.33137,-0.433673 -2.87787,0.723538 -4.96819,-2.540568 -2.93272,-4.57954 0.61716,-0.618205 1.31761,-0.757592 2.59802,-0.516972 1.50771,0.283331 1.72847,0.199701 1.57747,-0.597542 -0.19313,-1.019536 -2.26786,-1.472084 -4.34949,-0.948732 -2.80062,0.704121 -3.20385,6.555811 -0.54043,7.842771 1.31667,0.636218 3.00037,0.762479 4.17037,0.312728 l 0,8e-6 z m 8.59944,-0.19551 c 0.77654,-0.005 0.89408,-0.543927 0.89408,-4.099883 0,-3.75307 -0.0851,-4.094257 -1.0218,-4.094257 -0.90761,0 -1.02181,0.341187 -1.02181,3.052682 0,2.580742 -0.16646,3.141922 -1.07666,3.629891 -1.57135,0.842397 -2.14087,-0.01283 -2.40021,-3.604262 -0.15657,-2.168335 -0.43067,-3.078311 -0.92723,-3.078311 -0.52889,0 -0.70495,0.852729 -0.70495,3.414232 0,4.282811 0.87582,5.529669 3.5704,5.082963 0.98676,-0.163583 2.19644,-0.299953 2.68818,-0.303055 l 0,0 z m 17.91525,-0.08225 c 1.58059,-0.83339 1.86561,-1.424821 1.87447,-3.889691 0.01,-2.72048 -1.32213,-4.222202 -3.74477,-4.222202 -2.38991,0 -3.65551,1.540356 -3.65551,4.449094 0,3.478022 2.60338,5.203685 5.52581,3.662799 z m -50.74087,-0.691059 c 0,-0.589324 -0.65282,-0.767666 -2.80997,-0.767666 -2.78159,0 -2.80997,-0.01548 -2.80997,-1.535348 0,-1.501228 0.0568,-1.535347 2.55452,-1.535347 2.21392,0 2.55452,-0.136478 2.55452,-1.023563 0,-0.887092 -0.3406,-1.023563 -2.55452,-1.023563 -2.38423,0 -2.55452,-0.0853 -2.55452,-1.279458 0,-1.194156 0.17029,-1.279455 2.55452,-1.279455 1.93008,0 2.55452,-0.187657 2.55452,-0.767674 0,-0.609264 -0.73797,-0.767673 -3.57633,-0.767673 l -3.57633,0 0,5.373712 0,5.373709 3.83178,0 c 3.06543,0 3.83178,-0.15353 3.83178,-0.767674 z m 3.79032,-0.520189 0.84239,-1.28787 1.15542,1.345562 c 0.64028,0.745649 1.54763,1.2628 2.03511,1.159926 0.77359,-0.163253 0.71596,-0.415395 -0.47783,-2.090588 l -1.35752,-1.904937 1.34875,-1.771332 c 1.60939,-2.113645 1.64676,-2.351406 0.36954,-2.351406 -0.53855,0 -1.42684,0.615576 -1.97395,1.367938 l -0.99477,1.367939 -0.89477,-1.367939 c -0.49213,-0.752362 -1.32815,-1.367938 -1.85783,-1.367938 -1.2666,0 -1.21756,0.336795 0.34852,2.393564 l 1.31157,1.722511 -1.60995,2.036213 -1.60995,2.03622 1.26143,0 c 0.78395,0 1.5803,-0.487489 2.10384,-1.287863 z m 36.57114,0.520189 c 0,-0.477658 -0.48252,-0.767666 -1.27726,-0.767666 -1.19211,0 -1.27726,-0.170598 -1.27726,-2.558911 0,-2.38832 0.0851,-2.55891 1.27726,-2.55891 0.79474,0 1.27726,-0.290008 1.27726,-0.767674 0,-0.477665 -0.48252,-0.767673 -1.27726,-0.767673 -0.93665,0 -1.27726,-0.272952 -1.27726,-1.023566 0,-0.682375 -0.34061,-1.023562 -1.02181,-1.023562 -0.68121,0 -1.02181,0.341187 -1.02181,1.023562 0,0.562957 -0.22991,1.023566 -0.5109,1.023566 -0.281,0 -0.51091,0.34545 -0.51091,0.767673 0,0.422224 0.22991,0.767674 0.51091,0.767674 0.28099,0 0.5109,1.220599 0.5109,2.712441 0,1.491849 0.27589,2.988807 0.61308,3.326584 0.91115,0.912699 3.98506,0.79427 3.98506,-0.153538 z m 3.06543,-3.326577 c 0,-3.75307 -0.0851,-4.094257 -1.02181,-4.094257 -0.93666,0 -1.02181,0.341187 -1.02181,4.094257 0,3.753063 0.0851,4.094251 1.02181,4.094251 0.93666,0 1.02181,-0.341188 1.02181,-4.094251 z m 12.77261,1.75759 c 0,-2.788905 0.71025,-4.3165 2.00693,-4.3165 1.20076,0 1.5694,0.971531 1.5694,4.136108 0,2.229624 0.12467,2.517053 1.09176,2.517053 1.03061,0 1.0768,-0.186604 0.82479,-3.331556 -0.34645,-4.323436 -0.81015,-4.839921 -4.26357,-4.748905 l -2.76202,0.0728 0,4.003829 c 0,3.217777 0.15045,4.003836 0.76635,4.003836 0.56931,0 0.76636,-0.600817 0.76636,-2.336661 z m -12.77261,-7.898975 c 0,-0.682376 -0.34061,-1.023563 -1.02181,-1.023563 -0.6812,0 -1.02181,0.341187 -1.02181,1.023563 0,0.682375 0.34061,1.023562 1.02181,1.023562 0.6812,0 1.02181,-0.341187 1.02181,-1.023562 z"
       id="path4077"
       inkscape:connector-curvature="0" />
    <path
       style="fill:#ff9900;fill-opacity:0;stroke:#255153;stroke-width:0.511343;stroke-opacity:0"
       d="m 143.4595,85.821612 0,-21.750728 45.21505,0 45.21505,0 0,21.750728 0,21.750728 -45.21505,0 -45.21505,0 0,-21.750728 z m 34.07092,16.230828 c 1.09151,-0.69525 1.69239,-3.180266 1.69239,-6.999139 l 0,-3.752117 -2.82902,-0.03382 c -3.50801,-0.04199 -4.83455,1.030427 -4.83455,3.908363 0,2.966646 1.21949,4.345569 3.63873,4.114456 2.11849,-0.202374 2.44276,0.09643 1.2136,1.118287 -0.4556,0.37877 -1.39013,0.51346 -2.29907,0.33136 -1.28777,-0.258 -1.53144,-0.14599 -1.53144,0.70395 0,0.84918 0.34712,1.00952 2.17134,1.00294 1.19424,-0.004 2.44434,-0.18173 2.77802,-0.39426 z m -14.27417,-3.944959 c 0.82545,-0.961285 1.15033,-1.991518 1.15033,-3.64776 0,-3.951704 -1.53308,-5.780657 -4.86764,-5.807031 -2.58588,-0.02042 -4.08211,1.011332 -4.85105,3.345249 -0.85776,2.60349 -0.25036,5.027048 1.66436,6.640944 1.35208,1.139657 1.95807,1.318214 3.68588,1.086063 1.36567,-0.183487 2.45838,-0.732695 3.21812,-1.617465 l 0,0 z m 23.5024,1.25441 c 1.06884,0.0097 1.14954,-0.210843 1.14954,-3.14213 0,-2.215336 -0.25138,-3.430855 -0.84554,-4.088525 -1.31408,-1.454535 -5.79622,-1.170545 -5.79622,0.367246 0,0.473825 0.64573,0.652304 2.11639,0.584975 1.30836,-0.0599 2.2024,0.147347 2.34165,0.54283 0.15034,0.42696 -0.32777,0.63973 -1.43753,0.63973 -3.03338,0 -4.63761,2.913045 -2.68267,4.871339 0.60016,0.601189 1.31094,0.757048 2.4268,0.532133 0.86793,-0.174939 2.09534,-0.313359 2.72758,-0.307598 l 0,0 z m 21.50122,-0.283438 c 0.81398,-0.571125 1.11741,-1.226001 1.00775,-2.17507 -0.12539,-1.08526 -0.59382,-1.509217 -2.33295,-2.111431 -2.58687,-0.895775 -2.55603,-1.828924 0.0577,-1.747021 1.49782,0.04693 1.86286,-0.128568 1.86286,-0.895618 0,-0.788739 -0.3962,-0.953991 -2.28729,-0.953991 -1.85919,0 -2.43973,0.233047 -3.10174,1.245138 -1.06248,1.624344 -0.30074,3.151803 1.80259,3.614565 1.77936,0.391485 2.40288,1.136647 1.61309,1.927793 -0.39974,0.400427 -1.06201,0.401359 -2.35674,0.0036 -1.6065,-0.493909 -1.80076,-0.452424 -1.80076,0.384499 0,1.561736 3.6527,2.028803 5.53544,0.707811 z m 8.64215,0.494589 c 0.66929,-0.179668 1.14953,-0.705984 1.14953,-1.259798 0,-0.809589 -0.19511,-0.876896 -1.31051,-0.452094 -1.81923,0.692858 -2.57606,0.627005 -3.50658,-0.305112 -1.3816,-1.383974 -0.90155,-1.754681 2.2723,-1.754681 l 3.07516,0 -0.3338,-1.407396 c -0.49805,-2.099916 -1.69444,-3.198639 -3.48294,-3.198639 -3.23388,0 -5.15408,3.027039 -3.87793,6.113232 0.88913,2.150221 3.19982,3.020166 6.01477,2.264488 z m -48.91911,-2.525873 c 0,-2.984164 0.71519,-4.3165 2.31705,-4.3165 0.75678,0 1.25928,-0.294758 1.25928,-0.738663 0,-0.552976 -0.64215,-0.72401 -2.55451,-0.680376 l -2.55453,0.05832 0,4.00696 c 0,3.22055 0.15041,4.006953 0.76636,4.006953 0.5693,0 0.76635,-0.600817 0.76635,-2.336661 z m 24.01251,-0.415473 c 0,-3.106556 0.96968,-4.505318 2.46963,-3.562483 0.59473,0.373831 0.89743,1.405891 1.00447,3.424851 0.11204,2.112735 0.35244,2.889766 0.89409,2.889766 0.56579,0 0.74086,-0.733597 0.74086,-3.104334 0,-4.560775 -0.41532,-5.069157 -4.09882,-5.017211 l -3.05384,0.04306 0,4.039238 c 0,3.698057 0.0863,4.039245 1.02181,4.039245 0.89513,0 1.0218,-0.341188 1.0218,-2.752134 z m 9.19629,-1.342117 c 0,-3.298153 -0.14902,-4.094257 -0.76636,-4.094257 -0.61734,0 -0.76635,0.796104 -0.76635,4.094257 0,3.298147 0.14901,4.094251 0.76635,4.094251 0.61734,0 0.76636,-0.796104 0.76636,-4.094251 z m 20.43617,1.75759 c 0,-2.984164 0.71519,-4.3165 2.31705,-4.3165 0.75678,0 1.25929,-0.294758 1.25929,-0.738663 0,-0.552976 -0.64215,-0.72401 -2.55452,-0.680376 l -2.55452,0.05832 0,4.00696 c 0,3.22055 0.1504,4.006953 0.76635,4.006953 0.56931,0 0.76635,-0.600817 0.76635,-2.336661 z m -20.43617,-7.898973 c 0,-0.568646 -0.34061,-1.023562 -0.76636,-1.023562 -0.42575,0 -0.76635,0.454916 -0.76635,1.023562 0,0.568646 0.3406,1.023563 0.76635,1.023563 0.42575,0 0.76636,-0.454917 0.76636,-1.023563 z m -23.11843,-7.487518 c 0.67616,-0.18151 1.14953,-0.705511 1.14953,-1.272466 0,-1.132656 -0.0637,-1.146026 -1.76412,-0.36994 -1.54922,0.707079 -3.85582,-0.100883 -3.85582,-1.350636 0,-0.602622 0.63522,-0.778643 2.80997,-0.778643 2.6567,0 2.80997,-0.06979 2.80997,-1.279452 0,-3.192463 -4.5751,-4.562719 -6.60467,-1.978112 -1.15318,1.468549 -1.37293,3.760622 -0.51459,5.367203 0.88051,1.648081 3.40431,2.350733 5.96973,1.662046 l 0,0 z m 8.51586,0.01189 c 0.44448,-0.170863 0.80815,-0.656431 0.80815,-1.079048 0,-0.572401 -0.33961,-0.68302 -1.33137,-0.433673 -2.87787,0.723538 -4.96819,-2.540568 -2.93272,-4.57954 0.61716,-0.618205 1.31761,-0.757592 2.59802,-0.516972 1.50771,0.283331 1.72847,0.199701 1.57747,-0.597542 -0.19313,-1.019536 -2.26786,-1.472084 -4.34949,-0.948732 -2.80062,0.704121 -3.20385,6.555811 -0.54043,7.842771 1.31667,0.636218 3.00037,0.762479 4.17037,0.312728 l 0,8e-6 z m 8.59944,-0.19551 c 0.77654,-0.005 0.89408,-0.543927 0.89408,-4.099883 0,-3.75307 -0.0851,-4.094257 -1.0218,-4.094257 -0.90761,0 -1.02181,0.341187 -1.02181,3.052682 0,2.580742 -0.16646,3.141922 -1.07666,3.629891 -1.57135,0.842397 -2.14087,-0.01283 -2.40021,-3.604262 -0.15657,-2.168335 -0.43067,-3.078311 -0.92723,-3.078311 -0.52889,0 -0.70495,0.852729 -0.70495,3.414232 0,4.282811 0.87582,5.529669 3.5704,5.082963 0.98676,-0.163583 2.19644,-0.299953 2.68818,-0.303055 l 0,0 z m 17.91525,-0.08225 c 1.58059,-0.83339 1.86561,-1.424821 1.87447,-3.889691 0.01,-2.72048 -1.32213,-4.222202 -3.74477,-4.222202 -2.38991,0 -3.65551,1.540356 -3.65551,4.449094 0,3.478022 2.60338,5.203685 5.52581,3.662799 z m -50.74087,-0.691059 c 0,-0.589324 -0.65282,-0.767666 -2.80997,-0.767666 -2.78159,0 -2.80997,-0.01548 -2.80997,-1.535348 0,-1.501228 0.0568,-1.535347 2.55452,-1.535347 2.21392,0 2.55452,-0.136478 2.55452,-1.023563 0,-0.887092 -0.3406,-1.023563 -2.55452,-1.023563 -2.38423,0 -2.55452,-0.0853 -2.55452,-1.279458 0,-1.194156 0.17029,-1.279455 2.55452,-1.279455 1.93008,0 2.55452,-0.187657 2.55452,-0.767674 0,-0.609264 -0.73797,-0.767673 -3.57633,-0.767673 l -3.57633,0 0,5.373712 0,5.373709 3.83178,0 c 3.06543,0 3.83178,-0.15353 3.83178,-0.767674 z m 3.79032,-0.520189 0.84239,-1.28787 1.15542,1.345562 c 0.64028,0.745649 1.54763,1.2628 2.03511,1.159926 0.77359,-0.163253 0.71596,-0.415395 -0.47783,-2.090588 l -1.35752,-1.904937 1.34875,-1.771332 c 1.60939,-2.113645 1.64676,-2.351406 0.36954,-2.351406 -0.53855,0 -1.42684,0.615576 -1.97395,1.367938 l -0.99477,1.367939 -0.89477,-1.367939 c -0.49213,-0.752362 -1.32815,-1.367938 -1.85783,-1.367938 -1.2666,0 -1.21756,0.336795 0.34852,2.393564 l 1.31157,1.722511 -1.60995,2.036213 -1.60995,2.03622 1.26143,0 c 0.78395,0 1.5803,-0.487489 2.10384,-1.287863 z m 36.57114,0.520189 c 0,-0.477658 -0.48252,-0.767666 -1.27726,-0.767666 -1.19211,0 -1.27726,-0.170598 -1.27726,-2.558911 0,-2.38832 0.0851,-2.55891 1.27726,-2.55891 0.79474,0 1.27726,-0.290008 1.27726,-0.767674 0,-0.477665 -0.48252,-0.767673 -1.27726,-0.767673 -0.93665,0 -1.27726,-0.272952 -1.27726,-1.023566 0,-0.682375 -0.34061,-1.023562 -1.02181,-1.023562 -0.68121,0 -1.02181,0.341187 -1.02181,1.023562 0,0.562957 -0.22991,1.023566 -0.5109,1.023566 -0.281,0 -0.51091,0.34545 -0.51091,0.767673 0,0.422224 0.22991,0.767674 0.51091,0.767674 0.28099,0 0.5109,1.220599 0.5109,2.712441 0,1.491849 0.27589,2.988807 0.61308,3.326584 0.91115,0.912699 3.98506,0.79427 3.98506,-0.153538 z m 3.06543,-3.326577 c 0,-3.75307 -0.0851,-4.094257 -1.02181,-4.094257 -0.93666,0 -1.02181,0.341187 -1.02181,4.094257 0,3.753063 0.0851,4.094251 1.02181,4.094251 0.93666,0 1.02181,-0.341188 1.02181,-4.094251 z m 12.77261,1.75759 c 0,-2.788905 0.71025,-4.3165 2.00693,-4.3165 1.20076,0 1.5694,0.971531 1.5694,4.136108 0,2.229624 0.12467,2.517053 1.09176,2.517053 1.03061,0 1.0768,-0.186604 0.82479,-3.331556 -0.34645,-4.323436 -0.81015,-4.839921 -4.26357,-4.748905 l -2.76202,0.0728 0,4.003829 c 0,3.217777 0.15045,4.003836 0.76635,4.003836 0.56931,0 0.76636,-0.600817 0.76636,-2.336661 z m -12.77261,-7.898975 c 0,-0.682376 -0.34061,-1.023563 -1.02181,-1.023563 -0.6812,0 -1.02181,0.341187 -1.02181,1.023563 0,0.682375 0.34061,1.023562 1.02181,1.023562 0.6812,0 1.02181,-0.341187 1.02181,-1.023562 z"
       id="path4080"
       inkscape:connector-curvature="0" />
    <rect
       style="fill:#d3d6b2;fill-opacity:1;fill-rule:evenodd;stroke:#000000;stroke-width:0.69726729;stroke-linecap:butt;stroke-linejoin:round;stroke-miterlimit:4;stroke-opacity:1;stroke-dasharray:none"
       id="rect2985-7"
       width="90.316017"
       height="44.639931"
       x="83.188095"
       y="307.19119" />
    <text
       xml:space="preserve"
       style="font-size:14.31760311px;font-style:normal;font-weight:normal;text-align:center;line-height:125%;letter-spacing:0px;word-spacing:0px;text-anchor:middle;fill:#3c323a;fill-opacity:1;stroke:#000000;stroke-width:0.71588016;stroke-opacity:1;font-family:Sans"
       x="128.36378"
       y="333.55292"
       id="text3806"
       sodipodi:linespacing="125%"
       transform="scale(0.9991425,1.0008582)"><tspan
         style="fill:#3c323a;fill-opacity:1;stroke:none"
         sodipodi:role="line"
         id="tspan3808"
         x="128.36378"
         y="333.55292">Peer</tspan></text>
    <rect
       style="fill:#e8eae4;fill-opacity:1;fill-rule:evenodd;stroke:#000000;stroke-width:0.69726729;stroke-linecap:butt;stroke-linejoin:round;stroke-miterlimit:4;stroke-opacity:1;stroke-dasharray:none"
       id="rect2985-64"
       width="90.316017"
       height="44.639931"
       x="26.493443"
       y="362.28168" />
    <text
       xml:space="preserve"
       style="font-size:14.31760311px;font-style:normal;font-weight:normal;text-align:center;line-height:125%;letter-spacing:0px;word-spacing:0px;text-anchor:middle;fill:#3c323a;fill-opacity:1;stroke:none;font-family:Sans"
       x="71.637505"
       y="389.33392"
       id="text3802"
       sodipodi:linespacing="125%"
       transform="scale(0.9991425,1.0008582)"><tspan
         sodipodi:role="line"
         id="tspan3804"
         x="71.637505"
         y="389.33392">SSH</tspan></text>
    <rect
       style="fill:#e8eae4;fill-opacity:1;fill-rule:evenodd;stroke:#000000;stroke-width:0.69726729;stroke-linecap:butt;stroke-linejoin:round;stroke-miterlimit:4;stroke-opacity:1;stroke-dasharray:none"
       id="rect2985-64-0"
       width="90.316017"
       height="44.639931"
       x="25.949778"
       y="415.36008" />
    <text
       xml:space="preserve"
       style="font-size:14.31760311px;font-style:normal;font-weight:normal;text-align:center;line-height:125%;letter-spacing:0px;word-spacing:0px;text-anchor:middle;fill:#3c323a;fill-opacity:1;stroke:none;font-family:Sans"
       x="71.093376"
       y="442.36673"
       id="text3802-0"
       sodipodi:linespacing="125%"
       transform="scale(0.9991425,1.0008582)"><tspan
         sodipodi:role="line"
         id="tspan3804-2"
         x="71.093376"
         y="442.36673">WGet</tspan></text>
    <rect
       style="fill:#d3d6b2;fill-opacity:1;fill-rule:evenodd;stroke:#000000;stroke-width:0.69726729;stroke-linecap:butt;stroke-linejoin:round;stroke-miterlimit:4;stroke-opacity:1;stroke-dasharray:none"
       id="rect2985-07"
       width="90.316017"
       height="44.639931"
       x="84.127068"
       y="129.54402" />
    <text
       xml:space="preserve"
       style="font-size:14.31760311px;font-style:normal;font-weight:normal;text-align:center;line-height:125%;letter-spacing:0px;word-spacing:0px;text-anchor:middle;fill:#3c323a;fill-opacity:1;stroke:none;font-family:Sans"
       x="130.02994"
       y="147.40941"
       id="text3786"
       sodipodi:linespacing="125%"
       transform="scale(0.9991425,1.0008582)"><tspan
         sodipodi:role="line"
         id="tspan3788"
         x="130.02994"
         y="147.40941">Test Gather</tspan><tspan
         sodipodi:role="line"
         x="130.02994"
         y="165.30641"
         id="tspan3790">Manager</tspan></text>
    <rect
       style="fill:#d3d6b2;fill-opacity:1;fill-rule:evenodd;stroke:#000000;stroke-width:0.70677763;stroke-linecap:butt;stroke-linejoin:round;stroke-miterlimit:4;stroke-opacity:1;stroke-dasharray:none"
       id="rect2985-3"
       width="92.796547"
       height="44.639931"
       x="202.82951"
       y="129.52948"
       inkscape:connector-avoid="true" />
    <g
       id="g3909"
       transform="matrix(0.70403437,0,0,0.71649457,-198.63278,-261.26723)"
       style="fill:#3c323a;fill-opacity:1">
      <text
         sodipodi:linespacing="125%"
         id="text3792"
         y="583.65143"
         x="635.85535"
         style="font-size:20px;font-style:normal;font-weight:normal;text-align:center;line-height:125%;letter-spacing:0px;word-spacing:0px;text-anchor:middle;fill:#3c323a;fill-opacity:1;stroke:none;font-family:Sans"
         xml:space="preserve"><tspan
           y="583.65143"
           x="635.85535"
           id="tspan3794"
           sodipodi:role="line">HTTP Server</tspan></text>
    </g>
    <rect
       style="fill:#e8eae4;fill-opacity:1;fill-rule:evenodd;stroke:#000000;stroke-width:0.76233798;stroke-linecap:butt;stroke-linejoin:round;stroke-miterlimit:4;stroke-opacity:1;stroke-dasharray:none"
       id="rect2985-4"
       width="107.95961"
       height="44.639931"
       x="8.6826115"
       y="190.71703" />
    <text
       xml:space="preserve"
       style="font-size:14.31760311px;font-style:normal;font-weight:normal;text-align:center;line-height:125%;letter-spacing:0px;word-spacing:0px;text-anchor:middle;fill:#3c323a;fill-opacity:1;stroke:none;font-family:Sans"
       x="62.380119"
       y="212.14572"
       id="text3796"
       sodipodi:linespacing="125%"
       transform="scale(0.9991425,1.0008582)"><tspan
         sodipodi:role="line"
         id="tspan3798"
         x="62.380119"
         y="212.14572">Test Discovery</tspan><tspan
         sodipodi:role="line"
         x="62.380119"
         y="230.04272"
         id="tspan3800">Worker</tspan></text>
    <rect
       style="fill:#d3d6b2;fill-opacity:1;fill-rule:evenodd;stroke:#000000;stroke-width:0.70536506;stroke-linecap:butt;stroke-linejoin:round;stroke-miterlimit:4;stroke-opacity:1;stroke-dasharray:none"
       id="rect2985-5"
       width="92.42598"
       height="44.639931"
       x="203.20004"
       y="190.68796" />
    <text
       xml:space="preserve"
       style="font-size:14.4838829px;font-style:normal;font-weight:normal;text-align:center;line-height:125%;letter-spacing:0px;word-spacing:0px;text-anchor:middle;fill:#3c323a;fill-opacity:1;stroke:none;font-family:Sans"
       x="248.03426"
       y="212.44427"
       id="text3810"
       sodipodi:linespacing="125%"
       transform="scale(1.0107461,0.98936811)"><tspan
         sodipodi:role="line"
         id="tspan3812"
         x="250.3398"
         y="212.44427">UDP </tspan><tspan
         sodipodi:role="line"
         x="248.03426"
         y="230.54913"
         id="tspan3890">Server</tspan></text>
    <rect
       style="fill:#d3d6b2;fill-opacity:1;fill-rule:evenodd;stroke:#000000;stroke-width:0.70807749;stroke-linecap:butt;stroke-linejoin:round;stroke-miterlimit:4;stroke-opacity:1;stroke-dasharray:none"
       id="rect2985-6"
       width="93.138184"
       height="44.639931"
       x="202.48782"
       y="251.84641" />
    <text
       xml:space="preserve"
       style="font-size:14.53957939px;font-style:normal;font-weight:normal;text-align:center;line-height:125%;letter-spacing:0px;word-spacing:0px;text-anchor:middle;fill:#3c323a;fill-opacity:1;stroke:#000000;stroke-width:0.72697896;stroke-opacity:1;font-family:Sans"
       x="246.56294"
       y="276.03418"
       id="text3814"
       sodipodi:linespacing="125%"
       transform="scale(1.0146329,0.98557814)"><tspan
         style="fill:#3c323a;fill-opacity:1;stroke:none"
         sodipodi:role="line"
         id="tspan3816"
         x="248.87735"
         y="276.03418">Result </tspan><tspan
         style="fill:#3c323a;fill-opacity:1;stroke:none"
         sodipodi:role="line"
         x="246.56294"
         y="294.20865"
         id="tspan3888">Worker</tspan></text>
    <rect
       style="fill:#e8eae4;fill-opacity:1;fill-rule:evenodd;stroke:#000000;stroke-width:0.76080257;stroke-linecap:butt;stroke-linejoin:round;stroke-miterlimit:4;stroke-opacity:1;stroke-dasharray:none"
       id="rect2985-7-2"
       width="107.52517"
       height="44.639931"
       x="8.7158556"
       y="252.55562" />
    <text
       xml:space="preserve"
       style="font-size:15.62222958px;font-style:normal;font-weight:normal;text-align:center;line-height:125%;letter-spacing:0px;word-spacing:0px;text-anchor:middle;fill:#3c323a;fill-opacity:1;stroke:none;font-family:Sans"
       x="57.209064"
       y="296.57245"
       id="text3806-4"
       sodipodi:linespacing="125%"
       transform="scale(1.0901848,0.9172757)"><tspan
         sodipodi:role="line"
         id="tspan3808-1"
         x="57.209064"
         y="296.57245">Database</tspan><tspan
         id="tspan4031"
         sodipodi:role="line"
         x="57.209064"
         y="316.10025">Reader</tspan></text>
    <rect
       style="fill:#b8c172;fill-opacity:1;fill-rule:evenodd;stroke:#000000;stroke-width:0.69726729;stroke-linecap:butt;stroke-linejoin:round;stroke-miterlimit:4;stroke-opacity:1;stroke-dasharray:none"
       id="rect2985"
       width="90.316017"
       height="44.639931"
       x="143.62334"
       y="5.4444633" />
    <text
       xml:space="preserve"
       style="font-size:28.63520622px;font-style:normal;font-weight:normal;line-height:125%;letter-spacing:0px;word-spacing:0px;fill:#3c323a;fill-opacity:1;stroke:none;font-family:Sans"
       x="157.53857"
       y="32.210815"
       id="text3767"
       sodipodi:linespacing="125%"
       transform="scale(0.99914253,1.0008582)"><tspan
         sodipodi:role="line"
         id="tspan3769"
         x="157.53857"
         y="32.210815"
         style="font-size:14.31760311px;font-style:normal;font-variant:normal;font-weight:normal;font-stretch:normal;text-align:start;line-height:125%;writing-mode:lr-tb;text-anchor:start;fill:#3c323a;fill-opacity:1;font-family:Sans;-inkscape-font-specification:Sans">CMDLine</tspan></text>
    <rect
       style="fill:#b8c172;fill-opacity:1;fill-rule:evenodd;stroke:#000000;stroke-width:0.7027809;stroke-linecap:butt;stroke-linejoin:round;stroke-miterlimit:4;stroke-opacity:1;stroke-dasharray:none"
       id="rect2985-0"
       width="91.750008"
       height="44.639931"
       x="142.90636"
       y="63.448277" />
    <text
       xml:space="preserve"
       style="font-size:14.43081951px;font-style:normal;font-weight:normal;line-height:125%;letter-spacing:0px;word-spacing:0px;fill:#3c323a;fill-opacity:1;stroke:none;font-family:Sans"
       x="187.97002"
       y="81.984482"
       id="text3776"
       sodipodi:linespacing="125%"
       transform="scale(1.0070432,0.99300604)"><tspan
         sodipodi:role="line"
         x="187.97002"
         y="81.984482"
         id="tspan3780"
         style="font-size:14.43081951px;text-align:center;text-anchor:middle;fill:#3c323a;fill-opacity:1">Execution</tspan><tspan
         sodipodi:role="line"
         x="187.97002"
         y="100.023"
         id="tspan3784"
         style="font-size:14.43081951px;text-align:center;text-anchor:middle;fill:#3c323a;fill-opacity:1">Organiser</tspan></text>
    <path
       style="fill:none;stroke:#000000;stroke-width:1px;stroke-linecap:butt;stroke-linejoin:miter;stroke-opacity:1"
       d="m 120.03361,346.73963 0,85.84892 -12.08031,0"
       id="path4631"
       inkscape:connector-type="orthogonal"
       inkscape:connector-curvature="0"
       inkscape:connection-start="#rect2985-7"
       inkscape:connection-start-point="d4"
       inkscape:connection-end="#rect2985-64-0"
       inkscape:connection-end-point="d4"
       transform="translate(8.3124938,5.0914891)" />
    <rect
       style="fill:#ffffff;fill-rule:evenodd;stroke:#ffffff;stroke-width:0.46600953px;stroke-linecap:butt;stroke-linejoin:miter;stroke-opacity:1"
       id="rect3191-1"
       width="90.928055"
       height="7.1649456"
       x="75"
       y="-124.99998"
       inkscape:connector-avoid="true"
       transform="scale(1,-1)" />
    <rect
       style="fill:#ffffff;stroke:#ffffff;stroke-width:0.70483416;stroke-opacity:1"
       id="rect3980-8"
       width="90.137268"
       height="7.1649456"
       x="14.862732"
       y="179.99998"
       inkscape:connector-avoid="true" />
  </g>
</svg>
